<mxfile host="app.diagrams.net" modified="2023-10-28T11:16:01.408Z" agent="Mozilla/5.0 (Windows NT 10.0; Win64; x64) AppleWebKit/537.36 (KHTML, like Gecko) Chrome/118.0.0.0 Safari/537.36" version="22.0.8" etag="zz78JWeLtcnWVi642G3J" type="github">
  <diagram name="Page-1" id="cTc3zeURAYI7_o06JiJW">
    <mxGraphModel>
      <root>
        <mxCell id="0" />
        <mxCell id="1" parent="0" />
      </root>
    </mxGraphModel>
  </diagram>
</mxfile>
